<svg width="24" height="24" viewBox="0 0 24 24" fill="none" xmlns="http://www.w3.org/2000/svg">
<path fill-rule="evenodd" clip-rule="evenodd" d="M5.14258 6.78945C5.14258 5.8803 5.8803 5.14258 6.78945 5.14258C7.69803 5.14258 8.43576 5.8803 8.43633 6.78945C8.43633 7.6986 7.6986 8.45176 6.78945 8.45176C5.8803 8.45176 5.14258 7.6986 5.14258 6.78945ZM18.8534 18.857L18.8569 18.8564V13.8266C18.8569 11.3661 18.3271 9.47061 15.4506 9.47061C14.0677 9.47061 13.1397 10.2295 12.7609 10.9489H12.7209V9.70033H9.99336V18.8564H12.8334V14.3227C12.8334 13.129 13.0597 11.9746 14.5379 11.9746C15.9946 11.9746 16.0163 13.337 16.0163 14.3993V18.857H18.8534ZM5.369 9.70122H8.21246V18.8573H5.369V9.70122Z" fill="white"/>
</svg>
