<svg width="24" height="24" viewBox="0 0 24 24" fill="none" xmlns="http://www.w3.org/2000/svg">
<g clip-path="url(#clip0_2319_4966)">
<mask id="mask0_2319_4966" style="mask-type:luminance" maskUnits="userSpaceOnUse" x="0" y="0" width="24" height="24">
<path d="M24 0H0V24H24V0Z" fill="white"/>
</mask>
<g mask="url(#mask0_2319_4966)">
<mask id="mask1_2319_4966" style="mask-type:luminance" maskUnits="userSpaceOnUse" x="0" y="0" width="24" height="24">
<path d="M24 0H0V24H24V0Z" fill="white"/>
</mask>
<g mask="url(#mask1_2319_4966)">
<path d="M8.47713 6.5625C8.99457 6.5625 9.46688 6.60858 9.89408 6.69978C10.3213 6.79098 10.6861 6.94074 10.9904 7.14906C11.2947 7.35738 11.5309 7.63386 11.6989 7.97946C11.8669 8.32506 11.9504 8.7513 11.9504 9.25914C11.9504 9.8073 11.8256 10.2643 11.577 10.63C11.3283 10.9958 10.9597 11.2953 10.473 11.5286C11.1431 11.7215 11.6432 12.0595 11.9735 12.5414C12.3037 13.0233 12.4688 13.6051 12.4688 14.2857C12.4688 14.8339 12.3623 15.3092 12.1491 15.7103C11.936 16.1117 11.649 16.4389 11.288 16.6924C10.9271 16.9468 10.5162 17.134 10.0544 17.2558C9.58978 17.3779 9.11074 17.4393 8.63074 17.4382H3.35938V6.5625H8.47713ZM8.17282 10.9641C8.59906 10.9641 8.94946 10.8623 9.22401 10.6598C9.49857 10.4563 9.63586 10.127 9.6349 9.67002C9.6349 9.41658 9.58882 9.20826 9.49762 9.04602C9.40642 8.88378 9.2845 8.7561 9.13186 8.6649C8.97922 8.5737 8.80449 8.51034 8.60673 8.47482C8.4032 8.4393 8.19681 8.42106 7.98945 8.42202H5.7517V10.966L8.17282 10.9641ZM8.31009 15.5788C8.53569 15.5797 8.76034 15.5566 8.98018 15.5107C9.1933 15.4645 9.38145 15.3886 9.54369 15.2821C9.70593 15.1756 9.83552 15.0308 9.93248 14.8483C10.0285 14.6659 10.0775 14.4316 10.0775 14.1475C10.0775 13.5897 9.92002 13.1903 9.60514 12.9523C9.29026 12.7132 8.87362 12.5942 8.35618 12.5942H5.7517V15.5798L8.31009 15.5788ZM15.4775 15.3502C15.8019 15.6652 16.2695 15.8228 16.8791 15.8228C17.3159 15.8228 17.6912 15.7133 18.0061 15.4953C18.3211 15.2774 18.5139 15.046 18.585 14.8022H20.4887C20.1843 15.7468 19.7168 16.4217 19.0871 16.8278C18.4573 17.234 17.696 17.4373 16.8023 17.4373C16.1831 17.4373 15.6243 17.3385 15.1271 17.1407C14.6298 16.943 14.2083 16.6607 13.8627 16.295C13.5171 15.9293 13.2503 15.4933 13.0631 14.9855C12.8759 14.4777 12.7818 13.919 12.7818 13.3103C12.7818 12.7219 12.8778 12.1737 13.0707 11.6659C13.2637 11.158 13.5383 10.7193 13.8935 10.3487C14.2487 9.97818 14.673 9.68634 15.1655 9.47322C15.658 9.2601 16.2043 9.15354 16.8032 9.15354C17.4733 9.15354 18.0571 9.28314 18.5552 9.54234C19.0525 9.80154 19.4615 10.1491 19.7812 10.5859C20.1008 11.0227 20.3323 11.5199 20.4743 12.0787C20.6164 12.6374 20.6672 13.2211 20.6269 13.8307H14.9456C14.9754 14.5286 15.153 15.0364 15.4775 15.3502ZM17.9226 11.2079C17.6634 10.9238 17.2698 10.7817 16.7418 10.7817C16.3962 10.7817 16.1092 10.8403 15.8816 10.9564C15.6532 11.0735 15.4707 11.2175 15.3335 11.3903C15.1962 11.5631 15.1003 11.7455 15.0445 11.9385C14.9888 12.1315 14.9552 12.3043 14.9456 12.4559H18.464C18.3612 11.9087 18.1808 11.4921 17.9226 11.2079ZM14.5751 7.1145H18.9708V8.3337H14.5751V7.1145Z" fill="white"/>
</g>
</g>
</g>
<defs>
<clipPath id="clip0_2319_4966">
<rect width="24" height="24" fill="white"/>
</clipPath>
</defs>
</svg>
